<?xml version='1.0' encoding='ascii'?>
<score-partwise><work><work-title>Phidyl&#233;</work-title></work><identification><creator type="composer">Henri Duparc</creator><creator type="lyricist">Leconte de Lisle</creator></identification><part-list><score-part id="P1"><part-name>Music</part-name></score-part><score-part id="P2"><part-name>Music</part-name></score-part><score-part id="P3"><part-name>Music</part-name></score-part></part-list><part id="P1"><measure number="1"><attributes><divisions>144</divisions></attributes><attributes><time symbol="common"><beats>4</beats><beat-type>4</beat-type></time></attributes><attributes><key><fifths>6</fifths><mode /></key></attributes><attributes><clef><sign>G</sign><line>2</line><clef-octave-change>0</clef-octave-change></clef></attributes><direction><direction-type><metronome><beat-unit>4</beat-unit><per-minute>60</per-minute></metronome></direction-type></direction><sound tempo="60" /><note><rest /><duration>576</duration><type>whole</type><notations /></note></measure><measure number="2"><direction><direction-type><words>doux et sans nuances</words></direction-type></direction><note><pitch><step>F</step><alter>1</alter><octave>4</octave></pitch><duration>72</duration><type>eighth</type><accidental>sharp</accidental><notations /><lyric number="1"><syllabic>single</syllabic><text>L'herbe</text></lyric></note><note><pitch><step>F</step><alter>1</alter><octave>4</octave></pitch><duration>72</duration><type>eighth</type><accidental>sharp</accidental><notations /><lyric number="1"><syllabic>single</syllabic><text>est</text></lyric></note><note><pitch><step>F</step><alter>1</alter><octave>4</octave></pitch><duration>144</duration><tie type="start" /><type>quarter</type><accidental>sharp</accidental><notations><tied number="1" type="start" /></notations><lyric number="1"><syllabic>single</syllabic><text>molle</text><extend /></lyric></note><note><pitch><step>F</step><alter>1</alter><octave>4</octave></pitch><duration>48</duration><tie type="stop" /><type>eighth</type><accidental>sharp</accidental><time-modification><actual-notes>3</actual-notes><normal-notes>2</normal-notes></time-modification><beam number="1">begin</beam><notations><tied number="1" type="stop" /><tuplet type="start" /></notations><lyric number="1"><extend /></lyric></note><note><pitch><step>G</step><alter>1</alter><octave>4</octave></pitch><duration>48</duration><type>eighth</type><accidental>sharp</accidental><time-modification><actual-notes>3</actual-notes><normal-notes>2</normal-notes></time-modification><beam number="1">continue</beam><notations /><lyric number="1"><syllabic>single</syllabic><text>au</text></lyric></note><note><pitch><step>A</step><alter>0</alter><octave>4</octave></pitch><duration>48</duration><type>eighth</type><time-modification><actual-notes>3</actual-notes><normal-notes>2</normal-notes></time-modification><beam number="1">end</beam><notations><tuplet type="stop" /></notations><lyric number="1"><syllabic>begin</syllabic><text>som</text></lyric></note><note><pitch><step>F</step><alter>1</alter><octave>4</octave></pitch><duration>144</duration><tie type="start" /><type>quarter</type><accidental>sharp</accidental><notations><tied number="1" type="start" /></notations><lyric number="1"><syllabic>end</syllabic><text>meil</text><extend /></lyric></note><print new-system="yes" /></measure><measure number="3"><note><pitch><step>F</step><alter>1</alter><octave>4</octave></pitch><duration>72</duration><tie type="stop" /><type>eighth</type><accidental>sharp</accidental><notations><tied number="1" type="stop" /></notations><lyric number="1"><extend /></lyric></note><note><rest /><duration>72</duration><type>eighth</type><notations /></note><note><pitch><step>F</step><alter>1</alter><octave>4</octave></pitch><duration>72</duration><type>eighth</type><accidental>sharp</accidental><notations /><lyric number="1"><syllabic>single</syllabic><text>sous</text></lyric></note><note><pitch><step>F</step><alter>1</alter><octave>4</octave></pitch><duration>72</duration><type>eighth</type><accidental>sharp</accidental><notations /><lyric number="1"><syllabic>single</syllabic><text>les</text></lyric></note><note><pitch><step>F</step><alter>1</alter><octave>4</octave></pitch><duration>48</duration><type>eighth</type><accidental>sharp</accidental><time-modification><actual-notes>3</actual-notes><normal-notes>2</normal-notes></time-modification><beam number="1">begin</beam><notations><tuplet type="start" /></notations><lyric number="1"><syllabic>single</syllabic><text>frais</text></lyric></note><note><pitch><step>E</step><alter>0</alter><octave>4</octave></pitch><duration>48</duration><type>eighth</type><time-modification><actual-notes>3</actual-notes><normal-notes>2</normal-notes></time-modification><beam number="1">continue</beam><notations /><lyric number="1"><syllabic>begin</syllabic><text>peu</text></lyric></note><note><pitch><step>D</step><alter>0</alter><octave>4</octave></pitch><duration>48</duration><type>eighth</type><time-modification><actual-notes>3</actual-notes><normal-notes>2</normal-notes></time-modification><beam number="1">end</beam><notations><tuplet type="stop" /></notations><lyric number="1"><syllabic>middle</syllabic><text>pli</text></lyric></note><note><pitch><step>F</step><alter>1</alter><octave>4</octave></pitch><duration>144</duration><tie type="start" /><type>quarter</type><accidental>sharp</accidental><notations><tied number="1" type="start" /></notations><lyric number="1"><syllabic>end</syllabic><text>ers,</text><extend /></lyric></note><print new-system="yes" /></measure><measure number="4"><note><pitch><step>F</step><alter>1</alter><octave>4</octave></pitch><duration>72</duration><tie type="stop" /><type>eighth</type><accidental>sharp</accidental><notations><tied number="1" type="stop" /></notations><lyric number="1"><extend /><end-line /></lyric></note><note><rest /><duration>72</duration><type>eighth</type><notations /></note><note><pitch><step>F</step><alter>1</alter><octave>4</octave></pitch><duration>144</duration><type>quarter</type><accidental>sharp</accidental><notations /><lyric number="1"><syllabic>single</syllabic><text>Aux</text></lyric></note><note><pitch><step>G</step><alter>1</alter><octave>4</octave></pitch><duration>144</duration><type>quarter</type><accidental>sharp</accidental><notations /><lyric number="1"><syllabic>begin</syllabic><text>pen</text></lyric></note><note><pitch><step>A</step><alter>1</alter><octave>4</octave></pitch><duration>72</duration><type>eighth</type><accidental>sharp</accidental><notations /><lyric number="1"><syllabic>end</syllabic><text>tes</text></lyric></note><note><pitch><step>B</step><alter>1</alter><octave>4</octave></pitch><duration>72</duration><type>eighth</type><accidental>sharp</accidental><notations /><lyric number="1"><syllabic>single</syllabic><text>des</text></lyric></note></measure><measure number="5"><note><pitch><step>A</step><alter>1</alter><octave>4</octave></pitch><duration>144</duration><type>quarter</type><accidental>sharp</accidental><notations /><lyric number="1"><syllabic>begin</syllabic><text>sour</text></lyric></note><note><pitch><step>G</step><alter>1</alter><octave>4</octave></pitch><duration>72</duration><type>eighth</type><accidental>sharp</accidental><notations /><lyric number="1"><syllabic>end</syllabic><text>ces</text></lyric></note><note><pitch><step>F</step><alter>1</alter><octave>4</octave></pitch><duration>72</duration><type>eighth</type><accidental>sharp</accidental><notations /><lyric number="1"><syllabic>begin</syllabic><text>mous</text></lyric></note><note><pitch><step>G</step><alter>1</alter><octave>4</octave></pitch><duration>288</duration><tie type="start" /><type>half</type><accidental>sharp</accidental><notations><tied number="1" type="start" /></notations><lyric number="1"><syllabic>middle</syllabic><text>su</text></lyric></note></measure><measure number="6"><note><pitch><step>G</step><alter>1</alter><octave>4</octave></pitch><duration>72</duration><tie type="stop" /><type>eighth</type><accidental>sharp</accidental><notations><tied number="1" type="stop" /></notations><lyric number="1"><syllabic>end</syllabic><text>es</text><end-line /></lyric></note><note><rest /><duration>72</duration><type>eighth</type><notations /></note><note><pitch><step>G</step><alter>1</alter><octave>4</octave></pitch><duration>144</duration><type>quarter</type><accidental>sharp</accidental><notations /><lyric number="1"><syllabic>single</syllabic><text>Qui</text></lyric></note><note><pitch><step>A</step><alter>1</alter><octave>4</octave></pitch><duration>72</duration><type>eighth</type><accidental>sharp</accidental><notations /><lyric number="1"><syllabic>single</syllabic><text>dans</text></lyric></note><note><pitch><step>A</step><alter>1</alter><octave>4</octave></pitch><duration>72</duration><type>eighth</type><accidental>sharp</accidental><notations /><lyric number="1"><syllabic>single</syllabic><text>les</text></lyric></note><note><pitch><step>G</step><alter>1</alter><octave>4</octave></pitch><duration>72</duration><type>eighth</type><accidental>sharp</accidental><notations /><lyric number="1"><syllabic>single</syllabic><text>pr&#233;s</text></lyric></note><note><pitch><step>F</step><alter>1</alter><octave>4</octave></pitch><duration>72</duration><type>eighth</type><accidental>sharp</accidental><notations /><lyric number="1"><syllabic>single</syllabic><text>en</text></lyric></note></measure><measure number="7"><note><pitch><step>F</step><alter>1</alter><octave>4</octave></pitch><duration>144</duration><type>quarter</type><accidental>sharp</accidental><notations /><lyric number="1"><syllabic>single</syllabic><text>fleurs</text></lyric></note><note><rest /><duration>72</duration><type>eighth</type><notations /></note><note><pitch><step>F</step><alter>1</alter><octave>4</octave></pitch><duration>72</duration><type>eighth</type><accidental>sharp</accidental><notations /><lyric number="1"><syllabic>begin</syllabic><text>ger</text></lyric></note><note><pitch><step>A</step><alter>1</alter><octave>4</octave></pitch><duration>288</duration><tie type="start" /><type>half</type><accidental>sharp</accidental><notations><tied number="1" type="start" /></notations><lyric number="1"><syllabic>end</syllabic><text>mant</text><extend /></lyric></note></measure><measure number="8"><note><pitch><step>A</step><alter>1</alter><octave>4</octave></pitch><duration>72</duration><tie type="stop" /><type>eighth</type><accidental>sharp</accidental><notations><tied number="1" type="stop" /></notations><lyric number="1"><extend /></lyric></note><note><pitch><step>A</step><alter>1</alter><octave>4</octave></pitch><duration>72</duration><type>eighth</type><accidental>sharp</accidental><notations /><lyric number="1"><syllabic>single</syllabic><text>par</text></lyric></note><note><pitch><step>G</step><alter>1</alter><octave>4</octave></pitch><duration>72</duration><type>eighth</type><accidental>sharp</accidental><notations /><lyric number="1"><syllabic>single</syllabic><text>mille</text></lyric></note><note><pitch><step>F</step><alter>1</alter><octave>4</octave></pitch><duration>72</duration><type>eighth</type><accidental>sharp</accidental><notations /><lyric number="1"><syllabic>begin</syllabic><text>is</text></lyric></note><note><pitch><step>F</step><alter>1</alter><octave>4</octave></pitch><duration>144</duration><type>quarter</type><accidental>sharp</accidental><notations /><lyric number="1"><syllabic>middle</syllabic><text>su</text></lyric></note><note><pitch><step>F</step><alter>1</alter><octave>4</octave></pitch><duration>72</duration><type>eighth</type><accidental>sharp</accidental><notations /><lyric number="1"><syllabic>end</syllabic><text>es,</text><end-line /></lyric></note><note><pitch><step>F</step><alter>1</alter><octave>4</octave></pitch><duration>72</duration><type>eighth</type><accidental>sharp</accidental><notations /><lyric number="1"><syllabic>single</syllabic><text>Se</text></lyric></note></measure><measure number="9"><note><pitch><step>F</step><alter>1</alter><octave>4</octave></pitch><duration>72</duration><type>eighth</type><accidental>sharp</accidental><notations /><lyric number="1"><syllabic>begin</syllabic><text>per</text></lyric></note><note><pitch><step>F</step><alter>1</alter><octave>4</octave></pitch><duration>72</duration><type>eighth</type><accidental>sharp</accidental><notations /><lyric number="1"><syllabic>end</syllabic><text>dent</text></lyric></note><note><pitch><step>F</step><alter>1</alter><octave>4</octave></pitch><duration>72</duration><type>eighth</type><accidental>sharp</accidental><notations /><lyric number="1"><syllabic>single</syllabic><text>sous</text></lyric></note><note><pitch><step>F</step><alter>1</alter><octave>4</octave></pitch><duration>72</duration><type>eighth</type><accidental>sharp</accidental><notations /><lyric number="1"><syllabic>single</syllabic><text>les</text></lyric></note><note><pitch><step>F</step><alter>1</alter><octave>4</octave></pitch><duration>216</duration><type>quarter</type><dot /><accidental>sharp</accidental><notations /><lyric number="1"><syllabic>single</syllabic><text>noirs</text></lyric></note><note><pitch><step>D</step><alter>1</alter><octave>4</octave></pitch><duration>72</duration><type>eighth</type><accidental>sharp</accidental><notations /><lyric number="1"><syllabic>begin</syllabic><text>hal</text></lyric></note></measure><measure number="10"><direction><direction-type><words>rall.</words></direction-type></direction><note><pitch><step>F</step><alter>1</alter><octave>4</octave></pitch><duration>288</duration><tie type="start" /><type>half</type><accidental>sharp</accidental><notations><tied number="1" type="start" /></notations><lyric number="1"><syllabic>end</syllabic><text>liers.</text><extend /></lyric></note><note><pitch><step>F</step><alter>1</alter><octave>4</octave></pitch><duration>72</duration><tie type="stop" /><type>eighth</type><accidental>sharp</accidental><notations><tied number="1" type="stop" /></notations><lyric number="1"><extend /><end-line /></lyric></note><note><rest /><duration>72</duration><type>eighth</type><notations /></note><note><rest /><duration>144</duration><type>quarter</type><notations><fermata /></notations></note></measure></part><part id="P2"><measure number="1"><attributes><divisions>144</divisions></attributes><attributes><time symbol="common"><beats>4</beats><beat-type>4</beat-type></time></attributes><attributes><key><fifths>6</fifths><mode /></key></attributes><attributes><clef><sign>G</sign><line>2</line><clef-octave-change>0</clef-octave-change></clef></attributes><direction><direction-type><dynamics><p /></dynamics></direction-type><direction-type><metronome><beat-unit>4</beat-unit><per-minute>60</per-minute></metronome></direction-type></direction><sound tempo="60" /><note><pitch><step>C</step><alter>1</alter><octave>4</octave></pitch><duration>144</duration><type>quarter</type><accidental>sharp</accidental><notations /></note><note><chord /><pitch><step>F</step><alter>1</alter><octave>4</octave></pitch><duration>144</duration><type>quarter</type><accidental>sharp</accidental><notations /></note><note><chord /><pitch><step>C</step><alter>1</alter><octave>5</octave></pitch><duration>144</duration><type>quarter</type><accidental>sharp</accidental><notations /></note><note><pitch><step>C</step><alter>1</alter><octave>4</octave></pitch><duration>144</duration><type>quarter</type><accidental>sharp</accidental><notations /></note><note><chord /><pitch><step>F</step><alter>1</alter><octave>4</octave></pitch><duration>144</duration><type>quarter</type><accidental>sharp</accidental><notations /></note><note><chord /><pitch><step>C</step><alter>1</alter><octave>5</octave></pitch><duration>144</duration><type>quarter</type><accidental>sharp</accidental><notations /></note><note><pitch><step>C</step><alter>1</alter><octave>4</octave></pitch><duration>144</duration><type>quarter</type><accidental>sharp</accidental><notations /></note><note><chord /><pitch><step>F</step><alter>1</alter><octave>4</octave></pitch><duration>144</duration><type>quarter</type><accidental>sharp</accidental><notations /></note><note><chord /><pitch><step>C</step><alter>1</alter><octave>5</octave></pitch><duration>144</duration><type>quarter</type><accidental>sharp</accidental><notations /></note><note><pitch><step>C</step><alter>1</alter><octave>4</octave></pitch><duration>144</duration><type>quarter</type><accidental>sharp</accidental><notations /></note><note><chord /><pitch><step>F</step><alter>1</alter><octave>4</octave></pitch><duration>144</duration><type>quarter</type><accidental>sharp</accidental><notations /></note><note><chord /><pitch><step>C</step><alter>1</alter><octave>5</octave></pitch><duration>144</duration><type>quarter</type><accidental>sharp</accidental><notations /></note></measure><measure number="2"><note><pitch><step>C</step><alter>1</alter><octave>4</octave></pitch><duration>144</duration><type>quarter</type><accidental>sharp</accidental><notations /></note><note><chord /><pitch><step>F</step><alter>1</alter><octave>4</octave></pitch><duration>144</duration><type>quarter</type><accidental>sharp</accidental><notations /></note><note><chord /><pitch><step>C</step><alter>1</alter><octave>5</octave></pitch><duration>144</duration><type>quarter</type><accidental>sharp</accidental><notations /></note><note><pitch><step>C</step><alter>1</alter><octave>4</octave></pitch><duration>144</duration><type>quarter</type><accidental>sharp</accidental><notations /></note><note><chord /><pitch><step>F</step><alter>1</alter><octave>4</octave></pitch><duration>144</duration><type>quarter</type><accidental>sharp</accidental><notations /></note><note><chord /><pitch><step>C</step><alter>1</alter><octave>5</octave></pitch><duration>144</duration><type>quarter</type><accidental>sharp</accidental><notations /></note><note><pitch><step>D</step><alter>0</alter><octave>4</octave></pitch><duration>144</duration><type>quarter</type><notations /></note><note><chord /><pitch><step>F</step><alter>1</alter><octave>4</octave></pitch><duration>144</duration><type>quarter</type><accidental>sharp</accidental><notations /></note><note><chord /><pitch><step>D</step><alter>0</alter><octave>5</octave></pitch><duration>144</duration><type>quarter</type><notations /></note><note><pitch><step>D</step><alter>0</alter><octave>4</octave></pitch><duration>144</duration><type>quarter</type><notations /></note><note><chord /><pitch><step>F</step><alter>1</alter><octave>4</octave></pitch><duration>144</duration><type>quarter</type><accidental>sharp</accidental><notations /></note><note><chord /><pitch><step>D</step><alter>0</alter><octave>5</octave></pitch><duration>144</duration><type>quarter</type><notations /></note></measure><measure number="3"><note><pitch><step>C</step><alter>1</alter><octave>4</octave></pitch><duration>144</duration><type>quarter</type><accidental>sharp</accidental><notations /></note><note><chord /><pitch><step>F</step><alter>1</alter><octave>4</octave></pitch><duration>144</duration><type>quarter</type><accidental>sharp</accidental><notations /></note><note><chord /><pitch><step>C</step><alter>1</alter><octave>5</octave></pitch><duration>144</duration><type>quarter</type><accidental>sharp</accidental><notations /></note><note><pitch><step>C</step><alter>1</alter><octave>4</octave></pitch><duration>144</duration><type>quarter</type><accidental>sharp</accidental><notations /></note><note><chord /><pitch><step>F</step><alter>1</alter><octave>4</octave></pitch><duration>144</duration><type>quarter</type><accidental>sharp</accidental><notations /></note><note><chord /><pitch><step>C</step><alter>1</alter><octave>5</octave></pitch><duration>144</duration><type>quarter</type><accidental>sharp</accidental><notations /></note><note><pitch><step>D</step><alter>0</alter><octave>4</octave></pitch><duration>144</duration><type>quarter</type><notations /></note><note><chord /><pitch><step>F</step><alter>1</alter><octave>4</octave></pitch><duration>144</duration><type>quarter</type><accidental>sharp</accidental><notations /></note><note><chord /><pitch><step>D</step><alter>0</alter><octave>5</octave></pitch><duration>144</duration><type>quarter</type><notations /></note><note><pitch><step>D</step><alter>0</alter><octave>4</octave></pitch><duration>144</duration><type>quarter</type><notations /></note><note><chord /><pitch><step>F</step><alter>1</alter><octave>4</octave></pitch><duration>144</duration><type>quarter</type><accidental>sharp</accidental><notations /></note><note><chord /><pitch><step>D</step><alter>0</alter><octave>5</octave></pitch><duration>144</duration><type>quarter</type><notations /></note></measure><measure number="4"><note><pitch><step>C</step><alter>1</alter><octave>4</octave></pitch><duration>144</duration><type>quarter</type><accidental>sharp</accidental><notations /></note><note><chord /><pitch><step>F</step><alter>1</alter><octave>4</octave></pitch><duration>144</duration><type>quarter</type><accidental>sharp</accidental><notations /></note><note><chord /><pitch><step>C</step><alter>1</alter><octave>5</octave></pitch><duration>144</duration><type>quarter</type><accidental>sharp</accidental><notations /></note><note><pitch><step>C</step><alter>1</alter><octave>4</octave></pitch><duration>144</duration><type>quarter</type><accidental>sharp</accidental><notations /></note><note><chord /><pitch><step>F</step><alter>1</alter><octave>4</octave></pitch><duration>144</duration><type>quarter</type><accidental>sharp</accidental><notations /></note><note><chord /><pitch><step>C</step><alter>1</alter><octave>5</octave></pitch><duration>144</duration><type>quarter</type><accidental>sharp</accidental><notations /></note><note><pitch><step>B</step><alter>1</alter><octave>3</octave></pitch><duration>144</duration><type>quarter</type><accidental>sharp</accidental><notations /></note><note><chord /><pitch><step>F</step><alter>1</alter><octave>4</octave></pitch><duration>144</duration><type>quarter</type><accidental>sharp</accidental><notations /></note><note><chord /><pitch><step>C</step><alter>1</alter><octave>5</octave></pitch><duration>144</duration><type>quarter</type><accidental>sharp</accidental><notations /></note><note><pitch><step>B</step><alter>1</alter><octave>3</octave></pitch><duration>144</duration><type>quarter</type><accidental>sharp</accidental><notations /></note><note><chord /><pitch><step>F</step><alter>1</alter><octave>4</octave></pitch><duration>144</duration><type>quarter</type><accidental>sharp</accidental><notations /></note><note><chord /><pitch><step>C</step><alter>1</alter><octave>5</octave></pitch><duration>144</duration><type>quarter</type><accidental>sharp</accidental><notations /></note></measure><measure number="5"><note><pitch><step>C</step><alter>1</alter><octave>4</octave></pitch><duration>144</duration><type>quarter</type><accidental>sharp</accidental><notations /></note><note><chord /><pitch><step>F</step><alter>1</alter><octave>4</octave></pitch><duration>144</duration><type>quarter</type><accidental>sharp</accidental><notations /></note><note><chord /><pitch><step>C</step><alter>1</alter><octave>5</octave></pitch><duration>144</duration><type>quarter</type><accidental>sharp</accidental><notations /></note><note><pitch><step>C</step><alter>1</alter><octave>4</octave></pitch><duration>144</duration><type>quarter</type><accidental>sharp</accidental><notations /></note><note><chord /><pitch><step>F</step><alter>1</alter><octave>4</octave></pitch><duration>144</duration><type>quarter</type><accidental>sharp</accidental><notations /></note><note><chord /><pitch><step>C</step><alter>1</alter><octave>5</octave></pitch><duration>144</duration><type>quarter</type><accidental>sharp</accidental><notations /></note><note><pitch><step>B</step><alter>1</alter><octave>3</octave></pitch><duration>144</duration><type>quarter</type><accidental>sharp</accidental><notations /></note><note><chord /><pitch><step>F</step><alter>1</alter><octave>4</octave></pitch><duration>144</duration><type>quarter</type><accidental>sharp</accidental><notations /></note><note><chord /><pitch><step>C</step><alter>1</alter><octave>5</octave></pitch><duration>144</duration><type>quarter</type><accidental>sharp</accidental><notations /></note><note><pitch><step>B</step><alter>1</alter><octave>3</octave></pitch><duration>144</duration><type>quarter</type><accidental>sharp</accidental><notations /></note><note><chord /><pitch><step>F</step><alter>1</alter><octave>4</octave></pitch><duration>144</duration><type>quarter</type><accidental>sharp</accidental><notations /></note><note><chord /><pitch><step>C</step><alter>1</alter><octave>5</octave></pitch><duration>144</duration><type>quarter</type><accidental>sharp</accidental><notations /></note></measure><measure number="6"><note><pitch><step>B</step><alter>0</alter><octave>3</octave></pitch><duration>144</duration><type>quarter</type><notations /></note><note><chord /><pitch><step>F</step><alter>1</alter><octave>4</octave></pitch><duration>144</duration><type>quarter</type><accidental>sharp</accidental><notations /></note><note><chord /><pitch><step>B</step><alter>0</alter><octave>4</octave></pitch><duration>144</duration><type>quarter</type><notations /></note><note><pitch><step>B</step><alter>0</alter><octave>3</octave></pitch><duration>144</duration><type>quarter</type><notations /></note><note><chord /><pitch><step>F</step><alter>1</alter><octave>4</octave></pitch><duration>144</duration><type>quarter</type><accidental>sharp</accidental><notations /></note><note><chord /><pitch><step>B</step><alter>0</alter><octave>4</octave></pitch><duration>144</duration><type>quarter</type><notations /></note><note><pitch><step>A</step><alter>1</alter><octave>3</octave></pitch><duration>144</duration><type>quarter</type><accidental>sharp</accidental><notations /></note><note><chord /><pitch><step>E</step><alter>1</alter><octave>4</octave></pitch><duration>144</duration><type>quarter</type><accidental>sharp</accidental><notations /></note><note><chord /><pitch><step>A</step><alter>1</alter><octave>4</octave></pitch><duration>144</duration><type>quarter</type><accidental>sharp</accidental><notations /></note><note><pitch><step>A</step><alter>1</alter><octave>3</octave></pitch><duration>144</duration><type>quarter</type><accidental>sharp</accidental><notations /></note><note><chord /><pitch><step>D</step><alter>1</alter><octave>4</octave></pitch><duration>144</duration><type>quarter</type><accidental>sharp</accidental><notations /></note><note><chord /><pitch><step>A</step><alter>1</alter><octave>4</octave></pitch><duration>144</duration><type>quarter</type><accidental>sharp</accidental><notations /></note></measure><measure number="7"><note><pitch><step>A</step><alter>1</alter><octave>3</octave></pitch><duration>144</duration><type>quarter</type><accidental>sharp</accidental><notations /></note><note><chord /><pitch><step>D</step><alter>1</alter><octave>4</octave></pitch><duration>144</duration><type>quarter</type><accidental>sharp</accidental><notations /></note><note><chord /><pitch><step>A</step><alter>1</alter><octave>4</octave></pitch><duration>144</duration><type>quarter</type><accidental>sharp</accidental><notations /></note><note><pitch><step>A</step><alter>1</alter><octave>3</octave></pitch><duration>144</duration><type>quarter</type><accidental>sharp</accidental><notations /></note><note><chord /><pitch><step>D</step><alter>1</alter><octave>4</octave></pitch><duration>144</duration><type>quarter</type><accidental>sharp</accidental><notations /></note><note><chord /><pitch><step>A</step><alter>1</alter><octave>4</octave></pitch><duration>144</duration><type>quarter</type><accidental>sharp</accidental><notations /></note><note><pitch><step>A</step><alter>1</alter><octave>3</octave></pitch><duration>144</duration><type>quarter</type><accidental>sharp</accidental><notations /></note><note><chord /><pitch><step>D</step><alter>1</alter><octave>4</octave></pitch><duration>144</duration><type>quarter</type><accidental>sharp</accidental><notations /></note><note><chord /><pitch><step>A</step><alter>1</alter><octave>4</octave></pitch><duration>144</duration><type>quarter</type><accidental>sharp</accidental><notations /></note><note><pitch><step>A</step><alter>1</alter><octave>3</octave></pitch><duration>144</duration><type>quarter</type><accidental>sharp</accidental><notations /></note><note><chord /><pitch><step>D</step><alter>1</alter><octave>4</octave></pitch><duration>144</duration><type>quarter</type><accidental>sharp</accidental><notations /></note><note><chord /><pitch><step>A</step><alter>1</alter><octave>4</octave></pitch><duration>144</duration><type>quarter</type><accidental>sharp</accidental><notations /></note></measure><measure number="8"><note><pitch><step>A</step><alter>1</alter><octave>3</octave></pitch><duration>144</duration><type>quarter</type><accidental>sharp</accidental><notations /></note><note><chord /><pitch><step>D</step><alter>0</alter><octave>4</octave></pitch><duration>144</duration><type>quarter</type><notations /></note><note><chord /><pitch><step>A</step><alter>1</alter><octave>4</octave></pitch><duration>144</duration><type>quarter</type><accidental>sharp</accidental><notations /></note><note><pitch><step>A</step><alter>1</alter><octave>3</octave></pitch><duration>144</duration><type>quarter</type><accidental>sharp</accidental><notations /></note><note><chord /><pitch><step>D</step><alter>0</alter><octave>4</octave></pitch><duration>144</duration><type>quarter</type><notations /></note><note><chord /><pitch><step>A</step><alter>1</alter><octave>4</octave></pitch><duration>144</duration><type>quarter</type><accidental>sharp</accidental><notations /></note><note><pitch><step>B</step><alter>0</alter><octave>3</octave></pitch><duration>144</duration><type>quarter</type><notations /></note><note><chord /><pitch><step>D</step><alter>1</alter><octave>4</octave></pitch><duration>144</duration><type>quarter</type><accidental>sharp</accidental><notations /></note><note><chord /><pitch><step>A</step><alter>1</alter><octave>4</octave></pitch><duration>144</duration><type>quarter</type><accidental>sharp</accidental><notations /></note><note><pitch><step>B</step><alter>0</alter><octave>3</octave></pitch><duration>144</duration><type>quarter</type><notations /></note><note><chord /><pitch><step>D</step><alter>1</alter><octave>4</octave></pitch><duration>144</duration><type>quarter</type><accidental>sharp</accidental><notations /></note><note><chord /><pitch><step>A</step><alter>1</alter><octave>4</octave></pitch><duration>144</duration><type>quarter</type><accidental>sharp</accidental><notations /></note></measure><measure number="9"><note><pitch><step>A</step><alter>1</alter><octave>3</octave></pitch><duration>144</duration><type>quarter</type><accidental>sharp</accidental><notations /></note><note><chord /><pitch><step>C</step><alter>1</alter><octave>4</octave></pitch><duration>144</duration><type>quarter</type><accidental>sharp</accidental><notations /></note><note><chord /><pitch><step>A</step><alter>1</alter><octave>4</octave></pitch><duration>144</duration><type>quarter</type><accidental>sharp</accidental><notations /></note><note><pitch><step>A</step><alter>1</alter><octave>3</octave></pitch><duration>144</duration><type>quarter</type><accidental>sharp</accidental><notations /></note><note><chord /><pitch><step>C</step><alter>1</alter><octave>4</octave></pitch><duration>144</duration><type>quarter</type><accidental>sharp</accidental><notations /></note><note><chord /><pitch><step>A</step><alter>1</alter><octave>4</octave></pitch><duration>144</duration><type>quarter</type><accidental>sharp</accidental><notations /></note><note><pitch><step>A</step><alter>1</alter><octave>3</octave></pitch><duration>144</duration><type>quarter</type><accidental>sharp</accidental><notations /></note><note><chord /><pitch><step>D</step><alter>1</alter><octave>4</octave></pitch><duration>144</duration><type>quarter</type><accidental>sharp</accidental><notations /></note><note><chord /><pitch><step>A</step><alter>1</alter><octave>4</octave></pitch><duration>144</duration><type>quarter</type><accidental>sharp</accidental><notations /></note><note><pitch><step>B</step><alter>0</alter><octave>3</octave></pitch><duration>144</duration><type>quarter</type><notations /></note><note><chord /><pitch><step>D</step><alter>1</alter><octave>4</octave></pitch><duration>144</duration><type>quarter</type><accidental>sharp</accidental><notations /></note><note><chord /><pitch><step>B</step><alter>0</alter><octave>4</octave></pitch><duration>144</duration><type>quarter</type><notations /></note></measure><measure number="10"><direction><direction-type><words>rall.</words></direction-type></direction><note><pitch><step>C</step><alter>1</alter><octave>4</octave></pitch><duration>144</duration><type>quarter</type><accidental>sharp</accidental><notations /></note><note><chord /><pitch><step>F</step><alter>1</alter><octave>4</octave></pitch><duration>144</duration><type>quarter</type><accidental>sharp</accidental><notations /></note><note><chord /><pitch><step>C</step><alter>1</alter><octave>5</octave></pitch><duration>144</duration><type>quarter</type><accidental>sharp</accidental><notations /></note><note><pitch><step>C</step><alter>1</alter><octave>4</octave></pitch><duration>144</duration><type>quarter</type><accidental>sharp</accidental><notations /></note><note><chord /><pitch><step>F</step><alter>1</alter><octave>4</octave></pitch><duration>144</duration><type>quarter</type><accidental>sharp</accidental><notations /></note><note><chord /><pitch><step>C</step><alter>1</alter><octave>5</octave></pitch><duration>144</duration><type>quarter</type><accidental>sharp</accidental><notations /></note><note><pitch><step>C</step><alter>1</alter><octave>4</octave></pitch><duration>144</duration><type>quarter</type><accidental>sharp</accidental><notations /></note><note><chord /><pitch><step>F</step><alter>1</alter><octave>4</octave></pitch><duration>144</duration><type>quarter</type><accidental>sharp</accidental><notations /></note><note><chord /><pitch><step>C</step><alter>1</alter><octave>5</octave></pitch><duration>144</duration><type>quarter</type><accidental>sharp</accidental><notations /></note><note><pitch><step>C</step><alter>1</alter><octave>4</octave></pitch><duration>144</duration><type>quarter</type><accidental>sharp</accidental><notations><fermata /></notations></note><note><chord /><pitch><step>F</step><alter>1</alter><octave>4</octave></pitch><duration>144</duration><type>quarter</type><accidental>sharp</accidental><notations /></note><note><chord /><pitch><step>C</step><alter>1</alter><octave>5</octave></pitch><duration>144</duration><type>quarter</type><accidental>sharp</accidental><notations /></note></measure></part><part id="P3"><measure number="1"><attributes><divisions>144</divisions></attributes><attributes><time symbol="common"><beats>4</beats><beat-type>4</beat-type></time></attributes><attributes><key><fifths>6</fifths><mode /></key></attributes><attributes><clef><sign>F</sign><line>4</line><clef-octave-change>0</clef-octave-change></clef></attributes><note><pitch><step>F</step><alter>1</alter><octave>3</octave></pitch><duration>144</duration><type>quarter</type><accidental>sharp</accidental><notations /></note><note><chord /><pitch><step>A</step><alter>1</alter><octave>3</octave></pitch><duration>144</duration><type>quarter</type><accidental>sharp</accidental><notations /></note><note><pitch><step>F</step><alter>1</alter><octave>3</octave></pitch><duration>144</duration><type>quarter</type><accidental>sharp</accidental><notations /></note><note><chord /><pitch><step>A</step><alter>1</alter><octave>3</octave></pitch><duration>144</duration><type>quarter</type><accidental>sharp</accidental><notations /></note><note><pitch><step>F</step><alter>1</alter><octave>3</octave></pitch><duration>144</duration><type>quarter</type><accidental>sharp</accidental><notations /></note><note><chord /><pitch><step>A</step><alter>1</alter><octave>3</octave></pitch><duration>144</duration><type>quarter</type><accidental>sharp</accidental><notations /></note><note><pitch><step>F</step><alter>1</alter><octave>3</octave></pitch><duration>144</duration><type>quarter</type><accidental>sharp</accidental><notations /></note><note><chord /><pitch><step>A</step><alter>1</alter><octave>3</octave></pitch><duration>144</duration><type>quarter</type><accidental>sharp</accidental><notations /></note></measure><measure number="2"><note><pitch><step>F</step><alter>1</alter><octave>3</octave></pitch><duration>144</duration><type>quarter</type><accidental>sharp</accidental><notations /></note><note><chord /><pitch><step>A</step><alter>1</alter><octave>3</octave></pitch><duration>144</duration><type>quarter</type><accidental>sharp</accidental><notations /></note><note><pitch><step>F</step><alter>1</alter><octave>3</octave></pitch><duration>144</duration><type>quarter</type><accidental>sharp</accidental><notations /></note><note><chord /><pitch><step>A</step><alter>1</alter><octave>3</octave></pitch><duration>144</duration><type>quarter</type><accidental>sharp</accidental><notations /></note><note><pitch><step>A</step><alter>0</alter><octave>3</octave></pitch><duration>144</duration><type>quarter</type><notations /></note><note><chord /><pitch><step>B</step><alter>1</alter><octave>3</octave></pitch><duration>144</duration><type>quarter</type><accidental>sharp</accidental><notations /></note><note><pitch><step>A</step><alter>0</alter><octave>3</octave></pitch><duration>144</duration><type>quarter</type><notations /></note><note><chord /><pitch><step>B</step><alter>1</alter><octave>3</octave></pitch><duration>144</duration><type>quarter</type><accidental>sharp</accidental><notations /></note></measure><measure number="3"><note><pitch><step>F</step><alter>1</alter><octave>3</octave></pitch><duration>144</duration><type>quarter</type><accidental>sharp</accidental><notations /></note><note><chord /><pitch><step>A</step><alter>1</alter><octave>3</octave></pitch><duration>144</duration><type>quarter</type><accidental>sharp</accidental><notations /></note><note><pitch><step>F</step><alter>1</alter><octave>3</octave></pitch><duration>144</duration><type>quarter</type><accidental>sharp</accidental><notations /></note><note><chord /><pitch><step>A</step><alter>1</alter><octave>3</octave></pitch><duration>144</duration><type>quarter</type><accidental>sharp</accidental><notations /></note><note><pitch><step>A</step><alter>0</alter><octave>3</octave></pitch><duration>144</duration><type>quarter</type><notations /></note><note><chord /><pitch><step>B</step><alter>1</alter><octave>3</octave></pitch><duration>144</duration><type>quarter</type><accidental>sharp</accidental><notations /></note><note><pitch><step>A</step><alter>0</alter><octave>3</octave></pitch><duration>144</duration><type>quarter</type><notations /></note><note><chord /><pitch><step>B</step><alter>1</alter><octave>3</octave></pitch><duration>144</duration><type>quarter</type><accidental>sharp</accidental><notations /></note></measure><measure number="4"><note><pitch><step>F</step><alter>1</alter><octave>3</octave></pitch><duration>144</duration><type>quarter</type><accidental>sharp</accidental><notations /></note><note><chord /><pitch><step>A</step><alter>1</alter><octave>3</octave></pitch><duration>144</duration><type>quarter</type><accidental>sharp</accidental><notations /></note><note><pitch><step>F</step><alter>1</alter><octave>3</octave></pitch><duration>144</duration><type>quarter</type><accidental>sharp</accidental><notations /></note><note><chord /><pitch><step>A</step><alter>1</alter><octave>3</octave></pitch><duration>144</duration><type>quarter</type><accidental>sharp</accidental><notations /></note><note><pitch><step>F</step><alter>1</alter><octave>3</octave></pitch><duration>144</duration><type>quarter</type><accidental>sharp</accidental><notations /></note><note><chord /><pitch><step>G</step><alter>1</alter><octave>3</octave></pitch><duration>144</duration><type>quarter</type><accidental>sharp</accidental><notations /></note><note><pitch><step>F</step><alter>1</alter><octave>3</octave></pitch><duration>144</duration><type>quarter</type><accidental>sharp</accidental><notations /></note><note><chord /><pitch><step>G</step><alter>1</alter><octave>3</octave></pitch><duration>144</duration><type>quarter</type><accidental>sharp</accidental><notations /></note></measure><measure number="5"><note><pitch><step>F</step><alter>1</alter><octave>3</octave></pitch><duration>144</duration><type>quarter</type><accidental>sharp</accidental><notations /></note><note><chord /><pitch><step>A</step><alter>1</alter><octave>3</octave></pitch><duration>144</duration><type>quarter</type><accidental>sharp</accidental><notations /></note><note><pitch><step>F</step><alter>1</alter><octave>3</octave></pitch><duration>144</duration><type>quarter</type><accidental>sharp</accidental><notations /></note><note><chord /><pitch><step>A</step><alter>1</alter><octave>3</octave></pitch><duration>144</duration><type>quarter</type><accidental>sharp</accidental><notations /></note><note><pitch><step>F</step><alter>1</alter><octave>3</octave></pitch><duration>144</duration><type>quarter</type><accidental>sharp</accidental><notations /></note><note><chord /><pitch><step>G</step><alter>1</alter><octave>3</octave></pitch><duration>144</duration><type>quarter</type><accidental>sharp</accidental><notations /></note><note><pitch><step>F</step><alter>1</alter><octave>3</octave></pitch><duration>144</duration><type>quarter</type><accidental>sharp</accidental><notations /></note><note><chord /><pitch><step>G</step><alter>1</alter><octave>3</octave></pitch><duration>144</duration><type>quarter</type><accidental>sharp</accidental><notations /></note></measure><measure number="6"><note><pitch><step>F</step><alter>1</alter><octave>3</octave></pitch><duration>144</duration><type>quarter</type><accidental>sharp</accidental><notations /></note><note><chord /><pitch><step>G</step><alter>1</alter><octave>3</octave></pitch><duration>144</duration><type>quarter</type><accidental>sharp</accidental><notations /></note><note><pitch><step>F</step><alter>1</alter><octave>3</octave></pitch><duration>144</duration><type>quarter</type><accidental>sharp</accidental><notations /></note><note><chord /><pitch><step>G</step><alter>1</alter><octave>3</octave></pitch><duration>144</duration><type>quarter</type><accidental>sharp</accidental><notations /></note><note><pitch><step>F</step><alter>1</alter><octave>3</octave></pitch><duration>144</duration><type>quarter</type><accidental>sharp</accidental><notations /></note><note><pitch><step>F</step><alter>1</alter><octave>3</octave></pitch><duration>144</duration><type>quarter</type><accidental>sharp</accidental><notations /></note></measure><measure number="7"><note><pitch><step>B</step><alter>1</alter><octave>2</octave></pitch><duration>144</duration><type>quarter</type><accidental>sharp</accidental><notations /></note><note><chord /><pitch><step>F</step><alter>1</alter><octave>3</octave></pitch><duration>144</duration><type>quarter</type><accidental>sharp</accidental><notations /></note><note><pitch><step>B</step><alter>1</alter><octave>2</octave></pitch><duration>144</duration><type>quarter</type><accidental>sharp</accidental><notations /></note><note><chord /><pitch><step>F</step><alter>1</alter><octave>3</octave></pitch><duration>144</duration><type>quarter</type><accidental>sharp</accidental><notations /></note><note><pitch><step>B</step><alter>0</alter><octave>2</octave></pitch><duration>144</duration><type>quarter</type><notations /></note><note><chord /><pitch><step>F</step><alter>1</alter><octave>3</octave></pitch><duration>144</duration><type>quarter</type><accidental>sharp</accidental><notations /></note><note><pitch><step>B</step><alter>0</alter><octave>2</octave></pitch><duration>144</duration><type>quarter</type><notations /></note><note><chord /><pitch><step>F</step><alter>1</alter><octave>3</octave></pitch><duration>144</duration><type>quarter</type><accidental>sharp</accidental><notations /></note></measure><measure number="8"><note><pitch><step>A</step><alter>1</alter><octave>2</octave></pitch><duration>144</duration><type>quarter</type><accidental>sharp</accidental><notations /></note><note><chord /><pitch><step>F</step><alter>1</alter><octave>3</octave></pitch><duration>144</duration><type>quarter</type><accidental>sharp</accidental><notations /></note><note><pitch><step>A</step><alter>1</alter><octave>2</octave></pitch><duration>144</duration><type>quarter</type><accidental>sharp</accidental><notations /></note><note><chord /><pitch><step>F</step><alter>1</alter><octave>3</octave></pitch><duration>144</duration><type>quarter</type><accidental>sharp</accidental><notations /></note><note><pitch><step>B</step><alter>0</alter><octave>2</octave></pitch><duration>144</duration><type>quarter</type><notations /></note><note><chord /><pitch><step>F</step><alter>1</alter><octave>3</octave></pitch><duration>144</duration><type>quarter</type><accidental>sharp</accidental><notations /></note><note><pitch><step>B</step><alter>0</alter><octave>2</octave></pitch><duration>144</duration><type>quarter</type><notations /></note><note><chord /><pitch><step>F</step><alter>1</alter><octave>3</octave></pitch><duration>144</duration><type>quarter</type><accidental>sharp</accidental><notations /></note></measure><measure number="9"><note><pitch><step>C</step><alter>1</alter><octave>3</octave></pitch><duration>144</duration><type>quarter</type><accidental>sharp</accidental><notations /></note><note><chord /><pitch><step>F</step><alter>1</alter><octave>3</octave></pitch><duration>144</duration><type>quarter</type><accidental>sharp</accidental><notations /></note><note><pitch><step>C</step><alter>1</alter><octave>3</octave></pitch><duration>144</duration><type>quarter</type><accidental>sharp</accidental><notations /></note><note><chord /><pitch><step>F</step><alter>1</alter><octave>3</octave></pitch><duration>144</duration><type>quarter</type><accidental>sharp</accidental><notations /></note><note><pitch><step>D</step><alter>1</alter><octave>3</octave></pitch><duration>144</duration><type>quarter</type><accidental>sharp</accidental><notations /></note><note><chord /><pitch><step>F</step><alter>1</alter><octave>3</octave></pitch><duration>144</duration><type>quarter</type><accidental>sharp</accidental><notations /></note><note><pitch><step>F</step><alter>1</alter><octave>3</octave></pitch><duration>144</duration><type>quarter</type><accidental>sharp</accidental><notations /></note><note><chord /><pitch><step>G</step><alter>1</alter><octave>3</octave></pitch><duration>144</duration><type>quarter</type><accidental>sharp</accidental><notations /></note></measure><measure number="10"><note><pitch><step>F</step><alter>1</alter><octave>3</octave></pitch><duration>144</duration><type>quarter</type><accidental>sharp</accidental><notations /></note><note><chord /><pitch><step>A</step><alter>1</alter><octave>3</octave></pitch><duration>144</duration><type>quarter</type><accidental>sharp</accidental><notations /></note><note><pitch><step>F</step><alter>1</alter><octave>3</octave></pitch><duration>144</duration><type>quarter</type><accidental>sharp</accidental><notations /></note><note><chord /><pitch><step>A</step><alter>1</alter><octave>3</octave></pitch><duration>144</duration><type>quarter</type><accidental>sharp</accidental><notations /></note><note><pitch><step>F</step><alter>1</alter><octave>3</octave></pitch><duration>144</duration><type>quarter</type><accidental>sharp</accidental><notations /></note><note><chord /><pitch><step>A</step><alter>1</alter><octave>3</octave></pitch><duration>144</duration><type>quarter</type><accidental>sharp</accidental><notations /></note><note><pitch><step>F</step><alter>1</alter><octave>3</octave></pitch><duration>144</duration><type>quarter</type><accidental>sharp</accidental><notations><fermata /></notations></note><note><chord /><pitch><step>A</step><alter>1</alter><octave>3</octave></pitch><duration>144</duration><type>quarter</type><accidental>sharp</accidental><notations /></note></measure></part></score-partwise>